# xmcd CD database file
#
# Track frame offsets:
#	150
#	13358
#	28215
#	45143
#	55345
#	66150
#	74799
#	88007
#	102806
#	111750
#	124465
#	137600
#	152354
#	169432
#	186546
#	198887
#	209241
#	230039
#	245899
#	259386
#
# Disc length: 3628 seconds
#
# Revision: 0
# Processed by: cddbd v1.4PL0 Copyright (c) Steve Scherf et al.
# Submitted via: CDex 1.51
#
DISCID=3d0e2a14
DTITLE=Chamras Saewataporn - Smile Through The Year
DYEAR=2001
DGENRE=New Age
TTITLE0=Jingle Bells
TTITLE1=Silent Night
TTITLE2=The 12 Days Of Christmas
TTITLE3=White Christmas
TTITLE4=Silver Bells
TTITLE5=Joy To The World
TTITLE6=Jingle Bells instr.
TTITLE7=Silent Night instr.
TTITLE8=Happy New Year
TTITLE9=Smile Through The Year
TTITLE10=Happy New Year Best Wish To You
TTITLE11=Silent Night
TTITLE12=Sawasdee Pee Mai
TTITLE13=Sawasdee Pee Mai
TTITLE14=Are Tit Yim Chaeng
TTITLE15=Sunset
TTITLE16=Lotus In The Marsh
TTITLE17=Grandmother
TTITLE18=Happy New Year - Karaoke
TTITLE19=Smile Through The Year - Karaoke
EXTD=YEAR: 2001
EXTT0=
EXTT1=
EXTT2=
EXTT3=
EXTT4=
EXTT5=
EXTT6=
EXTT7=
EXTT8=
EXTT9=
EXTT10=
EXTT11=
EXTT12=
EXTT13=
EXTT14=
EXTT15=
EXTT16=
EXTT17=
EXTT18=
EXTT19=
PLAYORDER=
